<svg width="24" height="28" viewBox="0 0 24 28" fill="none" xmlns="http://www.w3.org/2000/svg">
<g clip-path="url(#clip0_36_210)">
<path d="M23.5387 19.4084C22.5037 18.2963 20.5671 16.6232 20.5671 11.1429C20.5671 6.98036 17.6486 3.64821 13.7132 2.83071V1.71429C13.7132 0.767679 12.9461 0 12 0C11.0539 0 10.2868 0.767679 10.2868 1.71429V2.83071C6.35143 3.64821 3.43286 6.98036 3.43286 11.1429C3.43286 16.6232 1.49626 18.2963 0.461256 19.4084C0.139828 19.7539 -0.00267205 20.167 6.52105e-06 20.5714C0.00589937 21.45 0.695363 22.2857 1.71965 22.2857H22.2803C23.3046 22.2857 23.9946 21.45 24 20.5714C24.0027 20.167 23.8602 19.7534 23.5387 19.4084V19.4084ZM3.61768 19.7143C4.75447 18.2159 5.99732 15.7323 6.00322 11.1739C6.00322 11.1632 6 11.1536 6 11.1429C6 7.82893 8.68607 5.14286 12 5.14286C15.3139 5.14286 18 7.82893 18 11.1429C18 11.1536 17.9968 11.1632 17.9968 11.1739C18.0027 15.7329 19.2455 18.2164 20.3823 19.7143H3.61768ZM12 27.4286C13.8921 27.4286 15.427 25.8938 15.427 24H8.57304C8.57304 25.8938 10.1079 27.4286 12 27.4286Z" fill="#888888"/>
</g>
<defs>
<clipPath id="clip0_36_210">
<rect width="24" height="27.4286" fill="white"/>
</clipPath>
</defs>
</svg>
