<svg width="20" height="20" viewBox="0 0 20 20" fill="none" xmlns="http://www.w3.org/2000/svg">
<path fill-rule="evenodd" clip-rule="evenodd" d="M20 10C20 15.5228 15.5228 20 10 20C4.47715 20 0 15.5228 0 10C0 4.47715 4.47715 0 10 0C15.5228 0 20 4.47715 20 10ZM18.0357 10.0447C18.0357 14.458 14.458 18.0357 10.0446 18.0357C5.6313 18.0357 2.05357 14.458 2.05357 10.0447C2.05357 5.63132 5.6313 2.05359 10.0446 2.05359C14.458 2.05359 18.0357 5.63132 18.0357 10.0447ZM10.9821 3.125H9.10714V4.75446C8.67387 4.88525 8.33898 5.12956 7.95298 5.47973C7.35337 6.02297 7.05357 6.74483 7.05357 7.64533C7.05357 8.38922 7.27496 9.03522 7.71775 9.58335C8.16053 10.1266 8.60032 10.5866 9.61042 10.9928C10.1639 11.2326 10.5444 11.4651 10.752 11.6902C10.9641 11.9105 11.0702 12.2383 11.0702 12.6739C11.0702 13.4716 10.7151 13.8705 10.0048 13.8705C9.4928 13.8705 9.12382 13.731 8.89781 13.4521C8.69832 13.2058 8.70106 12.7851 8.70445 12.2657C8.7049 12.1966 8.70536 12.1259 8.70536 12.0536H6.78572C6.78572 12.2152 6.77976 12.3749 6.77393 12.5312C6.7538 13.0706 6.73513 13.5708 6.96756 13.9806C7.27197 14.5092 7.69169 14.9154 8.22672 15.1992C8.50464 15.3467 8.79811 15.4558 9.10714 15.5267V16.9643H10.9821V15.5187C11.4952 15.3969 11.9282 15.1705 12.2809 14.8395C12.839 14.3159 13.1181 13.5891 13.1181 12.6592C13.1181 11.8126 12.8944 11.1152 12.447 10.567C12.0042 10.0189 11.2916 9.55644 10.3092 9.1796C9.74648 8.92511 9.35443 8.68041 9.13304 8.4455C8.91165 8.20569 8.80095 7.93897 8.80095 7.64533C8.80095 7.26849 8.90012 6.96996 9.09845 6.74973C9.29678 6.5246 9.57352 6.41204 9.92867 6.41204C10.3069 6.41204 10.5951 6.54418 10.7935 6.80845C10.9964 7.06784 11.091 7.53653 11.091 8.03571H12.9911V8.01791V8.01788C12.9911 7.38234 12.9911 6.72792 12.7306 6.22851C12.4724 5.72443 12.1011 5.33536 11.6168 5.06129C11.4166 4.94602 11.2051 4.85456 10.9821 4.78693V3.125Z" fill="#B3B3B3"/>
</svg>
