<svg width="22" height="20" viewBox="0 0 22 20" fill="none" xmlns="http://www.w3.org/2000/svg">
<path d="M9.779 15.8667L10.406 12.6556C10.538 12 10.362 11.3222 9.944 10.8111C9.526 10.3 8.91 10 8.25 10H2.2V8.8L5.027 2.22222H13.926C14.124 2.22222 14.3 2.4 14.3 2.6V11.3111L9.779 15.8667ZM8.8 20L15.851 12.8778C16.269 12.4556 16.5 11.8889 16.5 11.3V2.6C16.5 1.16667 15.345 0 13.926 0H5.016C4.235 0 3.52 0.411111 3.124 1.07778L0.187 7.91111C0.0660001 8.18889 0 8.48889 0 8.8V10C0 11.2222 0.99 12.2222 2.2 12.2222H8.25L7.238 17.3889C7.183 17.6333 7.216 17.9 7.326 18.1222C7.579 18.6222 7.898 19.0778 8.294 19.4778L8.8 20ZM19.8 12.2222H22V0H19.8C19.195 0 18.7 0.5 18.7 1.11111V11.1111C18.7 11.7222 19.195 12.2222 19.8 12.2222Z" fill="#888"/>
</svg>
