<svg width="24" height="24" viewBox="0 0 24 24" fill="none" xmlns="http://www.w3.org/2000/svg">
<path d="M1 3H3.2C3.805 3 4.3 3.5 4.3 4.11111V14.1111C4.3 14.7222 3.805 15.2222 3.2 15.2222H1V3ZM22.813 10.9111C22.934 11.1889 23 11.4889 23 11.8V13C23 14.2222 22.01 15.2222 20.8 15.2222H14.75L15.762 20.3889C15.817 20.6333 15.784 20.9 15.674 21.1222C15.421 21.6222 15.102 22.0778 14.706 22.4778L14.2 23L7.149 15.8778C6.731 15.4556 6.5 14.8889 6.5 14.3V5.6C6.5 4.16667 7.655 3 9.074 3H17.984C18.765 3 19.48 3.41111 19.876 4.07778L22.813 10.9111Z" fill="#EA3323"/>
</svg>
