<svg width="22" height="20" viewBox="0 0 22 20" fill="none" xmlns="http://www.w3.org/2000/svg">
<path d="M22 -9.53674e-07H19.8C19.195 -9.53674e-07 18.7 0.499999 18.7 1.11111V11.1111C18.7 11.7222 19.195 12.2222 19.8 12.2222H22V-9.53674e-07ZM0.187 7.91111C0.0659996 8.18889 -4.76837e-07 8.48889 -4.76837e-07 8.8V10C-4.76837e-07 11.2222 0.99 12.2222 2.2 12.2222H8.25L7.238 17.3889C7.183 17.6333 7.216 17.9 7.326 18.1222C7.579 18.6222 7.898 19.0778 8.294 19.4778L8.8 20L15.851 12.8778C16.269 12.4556 16.5 11.8889 16.5 11.3V2.58889C16.5 1.16667 15.345 -9.53674e-07 13.926 -9.53674e-07H5.005C4.235 -9.53674e-07 3.509 0.411109 3.113 1.07778L0.187 7.91111Z" fill="#EA3323"/>
</svg>
