<svg width="22" height="20" viewBox="0 0 22 20" fill="none" xmlns="http://www.w3.org/2000/svg">
<path d="M12.221 15.8667L11.594 12.6556C11.462 12 11.638 11.3222 12.056 10.8111C12.474 10.3 13.09 10 13.75 10H19.8V8.8L16.973 2.22222H8.074C7.876 2.22222 7.7 2.4 7.7 2.6V11.3111L12.221 15.8667ZM13.2 20L6.149 12.8778C5.731 12.4556 5.5 11.8889 5.5 11.3V2.6C5.5 1.16667 6.655 0 8.074 0H16.984C17.765 0 18.48 0.411111 18.876 1.07778L21.813 7.91111C21.934 8.18889 22 8.48889 22 8.8V10C22 11.2222 21.01 12.2222 19.8 12.2222H13.75L14.762 17.3889C14.817 17.6333 14.784 17.9 14.674 18.1222C14.421 18.6222 14.102 19.0778 13.706 19.4778L13.2 20ZM2.2 12.2222H0V0H2.2C2.805 0 3.3 0.5 3.3 1.11111V11.1111C3.3 11.7222 2.805 12.2222 2.2 12.2222Z" fill="#666666"/>
</svg>
