<svg width="18" height="18" viewBox="0 0 18 18" fill="none" xmlns="http://www.w3.org/2000/svg">
<path d="M11.06 6L11.98 6.92L2.92 16H2V15.08L11.06 6ZM14.66 -4.51846e-07C14.3977 0.00110417 14.1463 0.105255 13.96 0.29L12.13 2.12L15.88 5.87L17.71 4C17.8962 3.81264 18.0008 3.55919 18.0008 3.295C18.0008 3.03081 17.8962 2.77736 17.71 2.59L15.37 0.29C15.2766 0.197318 15.1657 0.123993 15.0439 0.0742283C14.9221 0.0244637 14.7916 -0.000761345 14.66 -4.51846e-07ZM11.06 3.19L0 14.25V18H3.75L14.81 6.94L11.06 3.19Z" fill="black"/>
</svg>
