<svg width="18" height="17" viewBox="0 0 18 17" fill="none" xmlns="http://www.w3.org/2000/svg">
<path d="M8.16675 11.0001H9.83342V12.6667H8.16675V11.0001ZM8.16675 4.33342H9.83342V9.33342H8.16675V4.33342ZM8.99175 0.166748C4.39175 0.166748 0.666748 3.90008 0.666748 8.50008C0.666748 13.1001 4.39175 16.8334 8.99175 16.8334C13.6001 16.8334 17.3334 13.1001 17.3334 8.50008C17.3334 3.90008 13.6001 0.166748 8.99175 0.166748ZM9.00008 15.1667C5.31675 15.1667 2.33341 12.1834 2.33341 8.50008C2.33341 4.81675 5.31675 1.83341 9.00008 1.83341C12.6834 1.83341 15.6667 4.81675 15.6667 8.50008C15.6667 12.1834 12.6834 15.1667 9.00008 15.1667Z" fill="#EA3323"/>
</svg>
