<svg width="20" height="20" viewBox="0 0 20 20" fill="none" xmlns="http://www.w3.org/2000/svg">
<path d="M10 0.247497C4.47563 0.247497 0 4.72687 0 10.2475C0 14.6681 2.865 18.415 6.83563 19.7369C7.3375 19.8312 7.51875 19.5219 7.51875 19.2544C7.51875 19.0169 7.51313 18.3887 7.50938 17.555C4.72625 18.1575 4.14 16.2106 4.14 16.2106C3.68438 15.0581 3.02687 14.7487 3.02687 14.7487C2.12187 14.1306 3.09875 14.1437 3.09875 14.1437C4.10125 14.2119 4.62875 15.1719 4.62875 15.1719C5.52063 16.7019 6.96875 16.2594 7.54188 16.0019C7.62938 15.3575 7.89 14.9144 8.17375 14.6675C5.95375 14.4169 3.61937 13.5575 3.61937 9.72562C3.61937 8.63125 4.00687 7.74 4.6475 7.04C4.53687 6.78937 4.19813 5.77062 4.73563 4.39312C4.73563 4.39312 5.5725 4.12625 7.48563 5.41875C8.28625 5.19687 9.13625 5.08625 9.98563 5.08062C10.8356 5.08625 11.685 5.1975 12.4856 5.41875C14.3875 4.12625 15.2237 4.39312 15.2237 4.39312C15.7606 5.77062 15.4219 6.78875 15.3244 7.04C15.9587 7.74 16.3462 8.63187 16.3462 9.72562C16.3462 13.5662 14.0087 14.4131 11.7862 14.6575C12.1337 14.9569 12.4594 15.5725 12.4594 16.5069C12.4594 17.8444 12.4469 18.9219 12.4469 19.2475C12.4469 19.5075 12.6219 19.82 13.1369 19.7194C17.1369 18.4112 19.9987 14.6612 19.9987 10.2469C19.9987 4.72625 15.5231 0.246872 9.99875 0.246872L10 0.247497Z" fill="#888888"/>
</svg>
