<svg width="16" height="16" viewBox="0 0 16 16" fill="none" xmlns="http://www.w3.org/2000/svg">
<path fill-rule="evenodd" clip-rule="evenodd" d="M8 16C12.4183 16 16 12.4183 16 8C16 3.58172 12.4183 0 8 0C3.58172 0 0 3.58172 0 8C0 12.4183 3.58172 16 8 16ZM7.99996 14.6725C11.6851 14.6725 14.6725 11.6851 14.6725 8C14.6725 4.31488 11.6851 1.32751 7.99996 1.32751C4.31485 1.32751 1.32747 4.31488 1.32747 8C1.32747 11.6851 4.31485 14.6725 7.99996 14.6725ZM7.19648 6.00874H8.7336V12.7162H7.19648V6.00874ZM8.7336 3.21398H7.19648V4.7511H8.7336V3.21398Z" fill="#EB2F96"/>
</svg>
