<svg width="16" height="16" viewBox="0 0 16 16" fill="none" xmlns="http://www.w3.org/2000/svg">
<path d="M8 2C8.39556 2 8.78224 2.1173 9.11114 2.33706C9.44004 2.55682 9.69638 2.86918 9.84776 3.23463C9.99913 3.60009 10.0387 4.00222 9.96157 4.39018C9.8844 4.77814 9.69392 5.13451 9.41421 5.41421C9.13451 5.69392 8.77814 5.8844 8.39018 5.96157C8.00222 6.03874 7.60009 5.99913 7.23463 5.84776C6.86918 5.69638 6.55682 5.44004 6.33706 5.11114C6.1173 4.78224 6 4.39556 6 4C6 3.46957 6.21071 2.96086 6.58579 2.58579C6.96086 2.21071 7.46957 2 8 2ZM8 12C10.7 12 13.8 13.29 14 14H2C2.23 13.28 5.31 12 8 12ZM8 0C7.20887 0 6.43552 0.234596 5.77772 0.674121C5.11992 1.11365 4.60723 1.73836 4.30448 2.46927C4.00173 3.20017 3.92252 4.00444 4.07686 4.78036C4.2312 5.55629 4.61216 6.26902 5.17157 6.82843C5.73098 7.38784 6.44371 7.7688 7.21964 7.92314C7.99556 8.07748 8.79983 7.99827 9.53073 7.69552C10.2616 7.39277 10.8864 6.88008 11.3259 6.22228C11.7654 5.56448 12 4.79113 12 4C12 2.93913 11.5786 1.92172 10.8284 1.17157C10.0783 0.421427 9.06087 0 8 0ZM8 10C5.33 10 0 11.34 0 14V16H16V14C16 11.34 10.67 10 8 10Z" fill="black"/>
</svg>
