<svg width="20" height="20" viewBox="0 0 20 20" fill="none" xmlns="http://www.w3.org/2000/svg">
<path d="M14.3636 13.4146C14.9996 13.4146 15.5152 12.8959 15.5152 12.2561C15.5152 11.6163 14.9996 11.0976 14.3636 11.0976C13.7277 11.0976 13.2121 11.6163 13.2121 12.2561C13.2121 12.8959 13.7277 13.4146 14.3636 13.4146Z" fill="#B3B3B3"/>
<path fill-rule="evenodd" clip-rule="evenodd" d="M2.66667 0C1.19391 0 0 1.20119 0 2.68293V17.8049C0 19.0172 0.976834 20 2.18182 20H17.8182C19.0232 20 20 19.0172 20 17.8049V6.70732C20 5.49498 19.0232 4.5122 17.8182 4.5122H3.21212C2.57616 4.5122 2.06061 3.9935 2.06061 3.35366C2.06061 2.71382 2.57616 2.19512 3.21212 2.19512H18.7879V0H2.66667ZM2.06061 6.58537H17.697V17.8049H2.06061V6.58537Z" fill="#B3B3B3"/>
</svg>
