<svg width="20" height="20" viewBox="0 0 20 20" fill="none" xmlns="http://www.w3.org/2000/svg">
<path d="M11.145 0H8.85496V2.29008H11.145V0Z" fill="black"/>
<path fill-rule="evenodd" clip-rule="evenodd" d="M0.152672 1.0687C0.152672 0.562793 0.562791 0.152672 1.0687 0.152672H5.80153C6.30744 0.152672 6.71756 0.562793 6.71756 1.0687V5.80153C6.71756 6.30744 6.30744 6.71756 5.80153 6.71756H1.0687C0.562791 6.71756 0.152672 6.30744 0.152672 5.80153V1.0687ZM2.29008 2.29008H4.58015V4.58015H2.29008V2.29008Z" fill="black"/>
<path fill-rule="evenodd" clip-rule="evenodd" d="M13.2824 1.0687C13.2824 0.562793 13.6926 0.152672 14.1985 0.152672H18.9313C19.4372 0.152672 19.8473 0.562793 19.8473 1.0687V5.80153C19.8473 6.30744 19.4372 6.71756 18.9313 6.71756H14.1985C13.6926 6.71756 13.2824 6.30744 13.2824 5.80153V1.0687ZM15.4198 2.29008H17.7099V4.58015H15.4198V2.29008Z" fill="black"/>
<path fill-rule="evenodd" clip-rule="evenodd" d="M1.0687 13.2824C0.562791 13.2824 0.152672 13.6926 0.152672 14.1985V18.9313C0.152672 19.4372 0.562791 19.8473 1.0687 19.8473H5.80153C6.30744 19.8473 6.71756 19.4372 6.71756 18.9313V14.1985C6.71756 13.6926 6.30744 13.2824 5.80153 13.2824H1.0687ZM4.58015 15.4198H2.29008V17.7099H4.58015V15.4198Z" fill="black"/>
<path d="M2.29008 8.85496H0V11.145H2.29008V8.85496Z" fill="black"/>
<path d="M4.42748 8.85496H6.71756V11.145H4.42748V8.85496Z" fill="black"/>
<path fill-rule="evenodd" clip-rule="evenodd" d="M11.145 8.85496H8.85496V11.145H11.145V13.2824H8.85496V15.5725H11.145V17.7099H8.85496V20H11.145V17.7099H13.2824V20H15.5725V17.7099H17.7099V20H20V17.7099H17.7099V15.5725H20V13.2824H17.7099V11.145H20V8.85496H17.7099V11.145H15.5725V8.85496H13.2824V11.145H11.145V8.85496ZM13.2824 13.2824V11.145H15.5725V13.2824H13.2824ZM13.2824 15.5725V17.7099H15.5725V15.5725H17.7099V13.2824H15.5725V15.5725H13.2824ZM13.2824 15.5725H11.145V13.2824H13.2824V15.5725Z" fill="black"/>
<path d="M8.85496 4.42748H11.145V6.71756H8.85496V4.42748Z" fill="black"/>
</svg>
