<svg width="20" height="20" viewBox="0 0 20 20" fill="none" xmlns="http://www.w3.org/2000/svg">
<path d="M17.4301 11C17.4749 10.6685 17.4983 10.3345 17.5001 10C17.4983 9.66551 17.4749 9.33148 17.4301 9L19.5401 7.35C19.6332 7.27524 19.6965 7.1696 19.7186 7.05221C19.7406 6.93482 19.7198 6.81343 19.6601 6.71L17.6601 3.25C17.6156 3.17295 17.5514 3.10917 17.4741 3.06522C17.3967 3.02128 17.309 2.99876 17.2201 3C17.1639 2.98967 17.1063 2.98967 17.0501 3L14.5601 4C14.0443 3.59217 13.4758 3.25581 12.8701 3L12.4901 0.349999C12.459 0.245445 12.394 0.154247 12.3052 0.0908493C12.2164 0.0274519 12.1091 -0.00451946 12.0001 -6.13014e-07H8.0001C7.88141 -0.00121715 7.76631 0.0406909 7.67619 0.117938C7.58607 0.195185 7.52705 0.302519 7.5101 0.419999L7.1301 3.07C6.52629 3.32964 5.95832 3.66572 5.4401 4.07L3.0001 3.05L2.7701 3C2.68284 3.00053 2.59724 3.02388 2.5218 3.06774C2.44637 3.11159 2.38372 3.17443 2.3401 3.25L0.340096 6.71C0.278243 6.81286 0.256294 6.93485 0.278413 7.05281C0.300533 7.17078 0.365182 7.27653 0.460096 7.35L2.5701 9C2.5257 9.33152 2.50232 9.66552 2.5001 10C2.50232 10.3345 2.5257 10.6685 2.5701 11L0.460096 12.63C0.366951 12.7048 0.303645 12.8104 0.281634 12.9278C0.259623 13.0452 0.280361 13.1666 0.340096 13.27L2.3401 16.73C2.38457 16.807 2.44879 16.8708 2.52613 16.9148C2.60348 16.9587 2.69115 16.9812 2.7801 16.98C2.8508 17.004 2.92622 17.0109 3.0001 17L5.4901 16C6.00589 16.4078 6.57435 16.7442 7.1801 17L7.5601 19.65C7.58865 19.7464 7.64619 19.8318 7.7249 19.8944C7.80362 19.957 7.8997 19.9939 8.0001 20H12.0001C12.1188 20.0012 12.2339 19.9593 12.324 19.8821C12.4141 19.8048 12.4731 19.6975 12.4901 19.58L12.8701 16.93C13.4739 16.6704 14.0419 16.3343 14.5601 15.93L17.0501 16.93C17.1097 16.9395 17.1705 16.9395 17.2301 16.93C17.3174 16.9295 17.403 16.9061 17.4784 16.8623C17.5538 16.8184 17.6165 16.7556 17.6601 16.68L19.6601 13.22C19.7198 13.1166 19.7406 12.9952 19.7186 12.8778C19.6965 12.7604 19.6332 12.6548 19.5401 12.58L17.4301 11ZM15.4301 9.29C15.4634 9.5319 15.4801 9.77581 15.4801 10.02C15.4801 10.23 15.4801 10.45 15.4301 10.75L15.2901 11.88L16.1801 12.58L17.2601 13.42L16.5601 14.63L15.2901 14.12L14.2901 13.7L13.3901 14.38C13.0052 14.6741 12.5853 14.9193 12.1401 15.11L11.0801 15.54L10.9201 16.67L10.7001 18H9.3001L9.1101 16.65L9.0001 15.52L7.9401 15.09C7.50196 14.9058 7.08872 14.6673 6.7101 14.38L5.8001 13.68L4.7401 14.11L3.4701 14.62L2.7701 13.41L3.8501 12.57L4.7401 11.87L4.6001 10.74C4.6001 10.43 4.6001 10.2 4.6001 10C4.6001 9.8 4.6001 9.57 4.6001 9.27L4.7401 8.14L3.8501 7.44L2.7201 6.6L3.4201 5.39L4.6901 5.9L5.6901 6.32L6.5901 5.64C6.97499 5.34594 7.39486 5.10074 7.8401 4.91L8.9001 4.48L9.0601 3.35L9.3001 2H10.6901L10.8801 3.35L11.0001 4.48L12.0601 4.91C12.4982 5.09418 12.9115 5.33272 13.2901 5.62L14.2001 6.32L15.2601 5.89L16.5301 5.38L17.2301 6.59L16.1601 7.44L15.2701 8.14L15.4301 9.29ZM10.0001 6C9.20897 6 8.43561 6.2346 7.77782 6.67412C7.12002 7.11365 6.60733 7.73836 6.30458 8.46926C6.00183 9.20017 5.92261 10.0044 6.07695 10.7804C6.2313 11.5563 6.61226 12.269 7.17167 12.8284C7.73108 13.3878 8.44381 13.7688 9.21974 13.9231C9.99566 14.0775 10.7999 13.9983 11.5308 13.6955C12.2617 13.3928 12.8864 12.8801 13.326 12.2223C13.7655 11.5645 14.0001 10.7911 14.0001 10C14.0001 8.93913 13.5787 7.92172 12.8285 7.17157C12.0784 6.42143 11.061 6 10.0001 6ZM10.0001 12C9.60453 12 9.21785 11.8827 8.88896 11.6629C8.56006 11.4432 8.30371 11.1308 8.15234 10.7654C8.00096 10.3999 7.96136 9.99778 8.03853 9.60982C8.1157 9.22186 8.30618 8.86549 8.58588 8.58579C8.86559 8.30608 9.22195 8.1156 9.60992 8.03843C9.99788 7.96126 10.4 8.00086 10.7655 8.15224C11.1309 8.30361 11.4433 8.55996 11.663 8.88886C11.8828 9.21776 12.0001 9.60444 12.0001 10C12.0001 10.5304 11.7894 11.0391 11.4143 11.4142C11.0392 11.7893 10.5305 12 10.0001 12Z" fill="black"/>
</svg>
