<svg width="40" height="40" viewBox="0 0 40 40" fill="none" xmlns="http://www.w3.org/2000/svg">
<path fill-rule="evenodd" clip-rule="evenodd" d="M40 20C40 31.0457 31.0457 40 20 40C8.9543 40 0 31.0457 0 20C0 8.9543 8.9543 0 20 0C31.0457 0 40 8.9543 40 20ZM20 5.00002C15.9131 5.00002 12.6 8.31311 12.6 12.4V17.2C12.6 21.2869 15.9131 24.6 20 24.6C20.5736 24.6 21.132 24.5347 21.6682 24.4112C21.9901 24.3371 22.0805 23.9397 21.8416 23.7115L17.5385 19.6015C16.8774 18.9594 16.4667 18.061 16.4667 17.0667V12.5333C16.4667 10.5819 18.0486 9.00002 20 9.00002C21.9514 9.00002 23.5333 10.5819 23.5333 12.5333V12.6682C23.5333 13.7359 24.3989 14.6015 25.4667 14.6015C26.5344 14.6015 27.4 13.7359 27.4 12.6682V12.4C27.4 8.31311 24.0869 5.00002 20 5.00002ZM27.4008 28.6643C27.4008 32.7513 24.0877 36.0643 20.0008 36.0643C15.9138 36.0643 12.6008 32.7513 12.6008 28.6643V28.3977C12.6008 27.3299 13.4663 26.4643 14.5341 26.4643C15.6018 26.4643 16.4674 27.3299 16.4674 28.3977V28.531C16.4674 30.4824 18.0493 32.0643 20.0008 32.0643C21.9522 32.0643 23.5341 30.4824 23.5341 28.531V23.9977C23.5341 23.0033 23.1234 22.1049 22.4623 21.4629L18.1592 17.3528C17.9203 17.1247 18.0107 16.7273 18.3326 16.6531C18.8687 16.5296 19.4271 16.4644 20.0008 16.4644C24.0877 16.4644 27.4008 19.7774 27.4008 23.8643V28.6643Z" fill="url(#paint0)"/>
<defs>
<linearGradient id="paint0" x1="20" y1="0" x2="20" y2="40" gradientUnits="userSpaceOnUse">
<stop stop-color="#F50083"/>
<stop offset="1" stop-color="#720497"/>
</linearGradient>
</defs>
</svg>
