<svg width="20" height="20" viewBox="0 0 20 20" fill="none" xmlns="http://www.w3.org/2000/svg">
<path fill-rule="evenodd" clip-rule="evenodd" d="M20 10C20 15.5228 15.5228 20 10 20C4.47715 20 0 15.5228 0 10C0 4.47715 4.47715 0 10 0C15.5228 0 20 4.47715 20 10ZM9.96772 2.134C7.92426 2.134 6.26772 3.79055 6.26772 5.83401V8.23401C6.26772 10.2775 7.92426 11.934 9.96772 11.934C10.2545 11.934 10.5337 11.9014 10.8018 11.8396C10.9628 11.8025 11.0079 11.6039 10.8885 11.4898L10.8685 11.4706L8.73695 9.43475C8.40642 9.11372 8.20105 8.66451 8.20105 8.16734V5.90067C8.20105 4.92497 8.99201 4.13401 9.96772 4.13401C10.9434 4.13401 11.7344 4.92497 11.7344 5.90067V5.96809C11.7344 6.50196 12.1672 6.93475 12.701 6.93475C13.2349 6.93475 13.6677 6.50196 13.6677 5.96809V5.83401C13.6677 3.79055 12.0112 2.134 9.96772 2.134ZM13.668 13.9662C13.668 16.0096 12.0114 17.6662 9.96797 17.6662C7.92451 17.6662 6.26797 16.0096 6.26797 13.9662V13.8329C6.26797 13.299 6.70076 12.8662 7.23463 12.8662C7.76851 12.8662 8.2013 13.299 8.2013 13.8329V13.8995C8.2013 14.8752 8.99226 15.6662 9.96797 15.6662C10.9437 15.6662 11.7346 14.8752 11.7346 13.8995V11.6329C11.7346 11.1357 11.5293 10.6865 11.1987 10.3654L9.06722 8.32957L9.04719 8.31044C8.92773 8.19635 8.97292 7.99767 9.13389 7.96059C9.40195 7.89883 9.68115 7.86619 9.96797 7.86619C12.0114 7.86619 13.668 9.52274 13.668 11.5662V13.9662Z" fill="url(#paint0_linear_3306_4443)"/>
<defs>
<linearGradient id="paint0_linear_3306_4443" x1="10" y1="0" x2="10" y2="20" gradientUnits="userSpaceOnUse">
<stop stop-color="#F50083"/>
<stop offset="1" stop-color="#720497"/>
</linearGradient>
</defs>
</svg>
