<svg width="18" height="17" viewBox="0 0 18 17" fill="none" xmlns="http://www.w3.org/2000/svg">
<path d="M9.00008 0.166748C4.40008 0.166748 0.666748 3.90008 0.666748 8.50008C0.666748 13.1001 4.40008 16.8334 9.00008 16.8334C13.6001 16.8334 17.3334 13.1001 17.3334 8.50008C17.3334 3.90008 13.6001 0.166748 9.00008 0.166748ZM9.00008 15.1667C5.32508 15.1667 2.33341 12.1751 2.33341 8.50008C2.33341 4.82508 5.32508 1.83341 9.00008 1.83341C12.6751 1.83341 15.6667 4.82508 15.6667 8.50008C15.6667 12.1751 12.6751 15.1667 9.00008 15.1667ZM12.8251 4.81675L7.33342 10.3084L5.17508 8.15842L4.00008 9.33342L7.33342 12.6667L14.0001 6.00008L12.8251 4.81675Z" fill="#3BB356"/>
</svg>
