<svg width="22" height="20" viewBox="0 0 22 20" fill="none" xmlns="http://www.w3.org/2000/svg">
<path d="M12.221 4.13333L11.594 7.34444C11.462 8 11.638 8.67778 12.056 9.18889C12.474 9.7 13.09 10 13.75 10H19.8V11.2L16.973 17.7778H8.074C7.876 17.7778 7.7 17.6 7.7 17.4V8.68889L12.221 4.13333ZM13.2 0L6.149 7.12222C5.731 7.54444 5.5 8.11111 5.5 8.7V17.4C5.5 18.8333 6.655 20 8.074 20H16.984C17.765 20 18.48 19.5889 18.876 18.9222L21.813 12.0889C21.934 11.8111 22 11.5111 22 11.2V10C22 8.77778 21.01 7.77778 19.8 7.77778H13.75L14.762 2.61111C14.817 2.36667 14.784 2.1 14.674 1.87778C14.421 1.37778 14.102 0.922222 13.706 0.522222L13.2 0ZM2.2 7.77778H0V20H2.2C2.805 20 3.3 19.5 3.3 18.8889V8.88889C3.3 8.27778 2.805 7.77778 2.2 7.77778Z" fill="#666666"/>
</svg>
