<svg width="22" height="20" viewBox="0 0 22 20" fill="none" xmlns="http://www.w3.org/2000/svg">
<path d="M0 20H2.2C2.805 20 3.3 19.5 3.3 18.8889V8.88889C3.3 8.27778 2.805 7.77778 2.2 7.77778H0V20ZM21.813 12.0889C21.934 11.8111 22 11.5111 22 11.2V10C22 8.77778 21.01 7.77778 19.8 7.77778H13.75L14.762 2.61111C14.817 2.36667 14.784 2.1 14.674 1.87778C14.421 1.37778 14.102 0.922222 13.706 0.522222L13.2 0L6.149 7.12222C5.731 7.54444 5.5 8.11111 5.5 8.7V17.4111C5.5 18.8333 6.655 20 8.074 20H16.995C17.765 20 18.491 19.5889 18.887 18.9222L21.813 12.0889Z" fill="#3BB356"/>
</svg>
