<svg width="25" height="17" viewBox="0 0 25 17" fill="none" xmlns="http://www.w3.org/2000/svg">
<path d="M12.375 3.9375C11.9023 3.98047 11.4297 4.02344 11 4.15234C11.2148 4.49609 11.3008 4.92578 11.3438 5.3125C11.3438 6.64453 10.2266 7.71875 8.9375 7.71875C8.50781 7.71875 8.07812 7.63281 7.77734 7.41797C7.64844 7.84766 7.5625 8.27734 7.5625 8.75C7.5625 11.4141 9.71094 13.5625 12.375 13.5625C15.0391 13.5625 17.1875 11.4141 17.1875 8.75C17.1875 6.12891 15.0391 3.98047 12.375 3.98047V3.9375ZM24.5781 8.14844C22.2578 3.59375 17.6172 0.5 12.375 0.5C7.08984 0.5 2.44922 3.59375 0.128906 8.14844C0.0429688 8.32031 0 8.53516 0 8.75C0 9.00781 0.0429688 9.22266 0.128906 9.39453C2.44922 13.9492 7.08984 17 12.375 17C17.6172 17 22.2578 13.9492 24.5781 9.39453C24.6641 9.22266 24.707 9.00781 24.707 8.79297C24.707 8.53516 24.6641 8.32031 24.5781 8.14844ZM12.375 14.9375C8.12109 14.9375 4.21094 12.5742 2.14844 8.75C4.21094 4.92578 8.12109 2.5625 12.375 2.5625C16.5859 2.5625 20.4961 4.92578 22.5586 8.75C20.4961 12.5742 16.5859 14.9375 12.375 14.9375Z" fill="black"/>
</svg>
