<svg width="24" height="24" viewBox="0 0 24 24" fill="none" xmlns="http://www.w3.org/2000/svg">
<path d="M15.3013 23.5402C20.3234 22.1062 24 17.4824 24 12C24 5.37258 18.6274 0 12 0C5.37258 0 0 5.37258 0 12C0 18.6274 5.37258 24 12 24C12.0525 24 12.1049 23.9997 12.1572 23.999V14.6725H9.64192V11.6332H12.1572V9.64192H12.1585C12.2282 7.10668 13.5835 5.65867 15.2489 5.55458C16.3453 5.49272 17.0276 5.50973 18.3406 5.60699V8.27947H16.559C15.6101 8.39629 15.3478 8.70609 15.3013 9.64192V11.6332H18.2882L17.9214 14.6725H15.3013V23.5402Z" fill="#1A1A1A"/>
</svg>
